<svg width="607" height="188" viewBox="0 0 607 188" fill="none" xmlns="http://www.w3.org/2000/svg">
<path d="M5.03994 73V23.65H27.7899C33.2033 23.65 37.3799 24.7933 40.3199 27.08C43.2599 29.3667 44.7299 32.4933 44.7299 36.46C44.7299 39.4 43.8433 41.8967 42.0699 43.95C40.3433 46.0033 37.9633 47.38 34.9299 48.08V46.96C38.4766 47.5667 41.2066 48.92 43.1199 51.02C45.0799 53.0733 46.0599 55.7567 46.0599 59.07C46.0599 63.4567 44.4966 66.8867 41.3699 69.36C38.2899 71.7867 34.0199 73 28.5599 73H5.03994ZM15.4699 64.88H27.2299C29.9366 64.88 32.0133 64.3667 33.4599 63.34C34.9066 62.3133 35.6299 60.68 35.6299 58.44C35.6299 56.1533 34.9066 54.52 33.4599 53.54C32.0133 52.5133 29.9366 52 27.2299 52H15.4699V64.88ZM15.4699 43.95H25.8299C28.6766 43.95 30.7766 43.4367 32.1299 42.41C33.4833 41.3833 34.1599 39.8433 34.1599 37.79C34.1599 35.7833 33.4833 34.2667 32.1299 33.24C30.7766 32.2133 28.6766 31.7 25.8299 31.7H15.4699V43.95ZM72.9302 73.77C66.7702 73.77 61.9635 72.1133 58.5102 68.8C55.0568 65.4867 53.3302 60.9833 53.3302 55.29C53.3302 51.6033 54.0535 48.3833 55.5002 45.63C56.9935 42.8767 59.0468 40.73 61.6602 39.19C64.3202 37.6033 67.4235 36.81 70.9702 36.81C74.4702 36.81 77.3868 37.5567 79.7202 39.05C82.1002 40.5433 83.8735 42.6433 85.0402 45.35C86.2535 48.01 86.8602 51.1133 86.8602 54.66V57.11H62.0102V51.86H79.1602L77.9702 52.84C77.9702 49.9 77.3635 47.6833 76.1502 46.19C74.9835 44.65 73.2802 43.88 71.0402 43.88C68.5668 43.88 66.6535 44.79 65.3002 46.61C63.9935 48.43 63.3402 51.0433 63.3402 54.45V55.57C63.3402 59.0233 64.1802 61.59 65.8602 63.27C67.5868 64.95 70.0602 65.79 73.2802 65.79C75.1935 65.79 76.9902 65.5567 78.6702 65.09C80.3968 64.5767 82.0302 63.7833 83.5702 62.71L86.5102 69.71C84.7368 71.0167 82.6835 72.02 80.3502 72.72C78.0635 73.42 75.5902 73.77 72.9302 73.77ZM108.657 73.77C105.483 73.77 102.59 73.42 99.9765 72.72C97.3632 72.02 95.1465 71.04 93.3265 69.78L96.0565 62.78C97.8765 63.9 99.8832 64.7867 102.077 65.44C104.317 66.0933 106.533 66.42 108.727 66.42C110.78 66.42 112.297 66.0933 113.277 65.44C114.257 64.7867 114.747 63.9 114.747 62.78C114.747 61.8467 114.42 61.1233 113.767 60.61C113.16 60.0967 112.203 59.7233 110.897 59.49L103.687 58.16C100.653 57.5533 98.3432 56.4333 96.7565 54.8C95.1698 53.1667 94.3765 51.0433 94.3765 48.43C94.3765 46.1433 94.9832 44.1367 96.1965 42.41C97.4565 40.6367 99.2532 39.26 101.587 38.28C103.92 37.3 106.65 36.81 109.777 36.81C112.437 36.81 114.957 37.1367 117.337 37.79C119.717 38.4433 121.747 39.4467 123.427 40.8L120.557 47.59C119.11 46.5167 117.43 45.6533 115.517 45C113.65 44.3467 111.853 44.02 110.127 44.02C107.887 44.02 106.277 44.3933 105.297 45.14C104.317 45.84 103.827 46.75 103.827 47.87C103.827 48.71 104.107 49.41 104.667 49.97C105.273 50.53 106.183 50.95 107.397 51.23L114.677 52.56C117.803 53.12 120.183 54.17 121.817 55.71C123.45 57.25 124.267 59.3733 124.267 62.08C124.267 64.5533 123.613 66.6533 122.307 68.38C121 70.1067 119.157 71.4367 116.777 72.37C114.443 73.3033 111.737 73.77 108.657 73.77ZM149.088 73.77C144.468 73.77 140.991 72.6267 138.658 70.34C136.325 68.0067 135.158 64.53 135.158 59.91V45.42H128.438V37.51H135.158V28.83L145.728 26.24V37.51H154.828V45.42H145.728V59.35C145.728 61.59 146.195 63.13 147.128 63.97C148.061 64.81 149.251 65.23 150.698 65.23C151.585 65.23 152.308 65.1833 152.868 65.09C153.475 64.95 154.105 64.7633 154.758 64.53V72.72C153.871 73.0933 152.938 73.35 151.958 73.49C150.978 73.6767 150.021 73.77 149.088 73.77ZM5.03994 167V117.65H23.8699C29.6099 117.65 34.4633 118.63 38.4299 120.59C42.3966 122.55 45.3833 125.373 47.3899 129.06C49.4433 132.7 50.4699 137.11 50.4699 142.29C50.4699 147.423 49.4433 151.833 47.3899 155.52C45.3833 159.207 42.3966 162.053 38.4299 164.06C34.4633 166.02 29.6099 167 23.8699 167H5.03994ZM15.9599 158.04H23.2399C28.7466 158.04 32.8299 156.757 35.4899 154.19C38.1966 151.577 39.5499 147.61 39.5499 142.29C39.5499 136.923 38.1966 132.957 35.4899 130.39C32.8299 127.823 28.7466 126.54 23.2399 126.54H15.9599V158.04ZM60.3438 167V131.51H70.9138V167H60.3438ZM59.9238 125.7V115.83H71.2638V125.7H59.9238ZM98.4228 182.68C95.0162 182.68 91.9828 182.33 89.3228 181.63C86.6628 180.977 84.2828 179.973 82.1828 178.62L84.2128 171.06C85.5195 171.9 86.8962 172.577 88.3428 173.09C89.8362 173.65 91.3528 174.047 92.8928 174.28C94.4795 174.56 96.0428 174.7 97.5828 174.7C100.709 174.7 103.043 173.953 104.583 172.46C106.123 170.967 106.893 168.843 106.893 166.09V158.74H107.593C106.846 160.98 105.353 162.777 103.113 164.13C100.873 165.483 98.3528 166.16 95.5528 166.16C92.3795 166.16 89.6028 165.437 87.2228 163.99C84.8895 162.543 83.0695 160.49 81.7628 157.83C80.4562 155.17 79.8028 152.043 79.8028 148.45C79.8028 144.857 80.4562 141.73 81.7628 139.07C83.0695 136.41 84.8895 134.38 87.2228 132.98C89.6028 131.533 92.3795 130.81 95.5528 130.81C98.3995 130.81 100.896 131.487 103.043 132.84C105.236 134.147 106.706 135.897 107.453 138.09L106.893 137.81L107.593 131.51H117.813C117.626 133.05 117.486 134.613 117.393 136.2C117.299 137.74 117.253 139.257 117.253 140.75V164.9C117.253 170.64 115.643 175.027 112.423 178.06C109.203 181.14 104.536 182.68 98.4228 182.68ZM98.7028 158.18C101.176 158.18 103.136 157.34 104.583 155.66C106.029 153.98 106.753 151.577 106.753 148.45C106.753 145.323 106.029 142.943 104.583 141.31C103.136 139.63 101.176 138.79 98.7028 138.79C96.1362 138.79 94.1062 139.63 92.6128 141.31C91.1662 142.943 90.4428 145.323 90.4428 148.45C90.4428 151.577 91.1662 153.98 92.6128 155.66C94.1062 157.34 96.1362 158.18 98.7028 158.18ZM127.85 167V131.51H138.42V167H127.85ZM127.43 125.7V115.83H138.77V125.7H127.43ZM165.649 167.77C161.029 167.77 157.552 166.627 155.219 164.34C152.885 162.007 151.719 158.53 151.719 153.91V139.42H144.999V131.51H151.719V122.83L162.289 120.24V131.51H171.389V139.42H162.289V153.35C162.289 155.59 162.755 157.13 163.689 157.97C164.622 158.81 165.812 159.23 167.259 159.23C168.145 159.23 168.869 159.183 169.429 159.09C170.035 158.95 170.665 158.763 171.319 158.53V166.72C170.432 167.093 169.499 167.35 168.519 167.49C167.539 167.677 166.582 167.77 165.649 167.77ZM192.603 167.77C189.523 167.77 186.816 167.023 184.483 165.53C182.149 164.037 180.329 161.913 179.023 159.16C177.716 156.407 177.063 153.093 177.063 149.22C177.063 145.393 177.716 142.103 179.023 139.35C180.329 136.597 182.149 134.497 184.483 133.05C186.816 131.557 189.523 130.81 192.603 130.81C195.449 130.81 197.993 131.51 200.233 132.91C202.519 134.263 204.013 136.107 204.713 138.44H203.943L204.783 131.51H214.933C214.793 133.05 214.653 134.613 214.513 136.2C214.419 137.74 214.373 139.257 214.373 140.75V167H203.873L203.803 160.35H204.643C203.896 162.59 202.403 164.387 200.163 165.74C197.923 167.093 195.403 167.77 192.603 167.77ZM195.823 159.79C198.249 159.79 200.209 158.927 201.703 157.2C203.196 155.473 203.943 152.813 203.943 149.22C203.943 145.627 203.196 142.99 201.703 141.31C200.209 139.63 198.249 138.79 195.823 138.79C193.396 138.79 191.436 139.63 189.943 141.31C188.449 142.99 187.703 145.627 187.703 149.22C187.703 152.813 188.426 155.473 189.873 157.2C191.366 158.927 193.349 159.79 195.823 159.79ZM225.041 167V115.48H235.611V167H225.041ZM262.896 167L285.576 117.65H294.606L317.566 167H306.506L300.556 153.28L304.826 156.29H275.496L279.836 153.28L273.886 167H262.896ZM290.056 129.13L281.026 150.55L279.136 147.89H301.186L299.576 150.55L290.336 129.13H290.056ZM339.649 182.68C336.243 182.68 333.209 182.33 330.549 181.63C327.889 180.977 325.509 179.973 323.409 178.62L325.439 171.06C326.746 171.9 328.123 172.577 329.569 173.09C331.063 173.65 332.579 174.047 334.119 174.28C335.706 174.56 337.269 174.7 338.809 174.7C341.936 174.7 344.269 173.953 345.809 172.46C347.349 170.967 348.119 168.843 348.119 166.09V158.74H348.819C348.073 160.98 346.579 162.777 344.339 164.13C342.099 165.483 339.579 166.16 336.779 166.16C333.606 166.16 330.829 165.437 328.449 163.99C326.116 162.543 324.296 160.49 322.989 157.83C321.683 155.17 321.029 152.043 321.029 148.45C321.029 144.857 321.683 141.73 322.989 139.07C324.296 136.41 326.116 134.38 328.449 132.98C330.829 131.533 333.606 130.81 336.779 130.81C339.626 130.81 342.123 131.487 344.269 132.84C346.463 134.147 347.933 135.897 348.679 138.09L348.119 137.81L348.819 131.51H359.039C358.853 133.05 358.713 134.613 358.619 136.2C358.526 137.74 358.479 139.257 358.479 140.75V164.9C358.479 170.64 356.869 175.027 353.649 178.06C350.429 181.14 345.763 182.68 339.649 182.68ZM339.929 158.18C342.403 158.18 344.363 157.34 345.809 155.66C347.256 153.98 347.979 151.577 347.979 148.45C347.979 145.323 347.256 142.943 345.809 141.31C344.363 139.63 342.403 138.79 339.929 138.79C337.363 138.79 335.333 139.63 333.839 141.31C332.393 142.943 331.669 145.323 331.669 148.45C331.669 151.577 332.393 153.98 333.839 155.66C335.333 157.34 337.363 158.18 339.929 158.18ZM386.926 167.77C380.766 167.77 375.96 166.113 372.506 162.8C369.053 159.487 367.326 154.983 367.326 149.29C367.326 145.603 368.05 142.383 369.496 139.63C370.99 136.877 373.043 134.73 375.656 133.19C378.316 131.603 381.42 130.81 384.966 130.81C388.466 130.81 391.383 131.557 393.716 133.05C396.096 134.543 397.87 136.643 399.036 139.35C400.25 142.01 400.856 145.113 400.856 148.66V151.11H376.006V145.86H393.156L391.966 146.84C391.966 143.9 391.36 141.683 390.146 140.19C388.98 138.65 387.276 137.88 385.036 137.88C382.563 137.88 380.65 138.79 379.296 140.61C377.99 142.43 377.336 145.043 377.336 148.45V149.57C377.336 153.023 378.176 155.59 379.856 157.27C381.583 158.95 384.056 159.79 387.276 159.79C389.19 159.79 390.986 159.557 392.666 159.09C394.393 158.577 396.026 157.783 397.566 156.71L400.506 163.71C398.733 165.017 396.68 166.02 394.346 166.72C392.06 167.42 389.586 167.77 386.926 167.77ZM409.563 167V140.75C409.563 139.257 409.516 137.74 409.423 136.2C409.329 134.613 409.189 133.05 409.003 131.51H419.153L419.923 138.09H419.083C420.249 135.757 421.906 133.96 424.053 132.7C426.199 131.44 428.696 130.81 431.543 130.81C435.696 130.81 438.799 132.023 440.853 134.45C442.953 136.83 444.003 140.54 444.003 145.58V167H433.433V146.07C433.433 143.503 432.966 141.683 432.033 140.61C431.099 139.537 429.699 139 427.833 139C425.499 139 423.633 139.747 422.233 141.24C420.833 142.687 420.133 144.647 420.133 147.12V167H409.563ZM471.572 167.77C467.792 167.77 464.479 167.023 461.632 165.53C458.786 164.037 456.592 161.89 455.052 159.09C453.512 156.29 452.742 152.977 452.742 149.15C452.742 145.277 453.512 141.987 455.052 139.28C456.639 136.527 458.832 134.427 461.632 132.98C464.479 131.533 467.792 130.81 471.572 130.81C473.952 130.81 476.262 131.16 478.502 131.86C480.789 132.56 482.656 133.54 484.102 134.8L481.022 142.08C479.856 141.007 478.502 140.213 476.962 139.7C475.469 139.14 474.022 138.86 472.622 138.86C469.776 138.86 467.559 139.747 465.972 141.52C464.386 143.293 463.592 145.86 463.592 149.22C463.592 152.58 464.386 155.147 465.972 156.92C467.559 158.693 469.776 159.58 472.622 159.58C473.976 159.58 475.399 159.323 476.892 158.81C478.432 158.297 479.809 157.527 481.022 156.5L484.102 163.71C482.609 164.97 480.719 165.973 478.432 166.72C476.192 167.42 473.906 167.77 471.572 167.77ZM492.441 182.89L489.991 174.63C492.184 174.21 494.028 173.72 495.521 173.16C497.061 172.6 498.321 171.853 499.301 170.92C500.281 170.033 501.074 168.867 501.681 167.42L503.431 163.29L503.151 167.35L487.751 131.51H498.881L509.031 157.2H506.861L517.151 131.51H527.651L511.621 168.4C510.454 171.06 509.194 173.253 507.841 174.98C506.534 176.753 505.111 178.153 503.571 179.18C502.031 180.207 500.328 181 498.461 181.56C496.641 182.12 494.634 182.563 492.441 182.89Z" fill="#3D3D3F"/>
<path d="M184.778 73V23.65H194.368L211.518 62.15H209.278L226.428 23.65H235.948V73H226.008V39.47H228.808L213.478 73H207.178L191.778 39.47H194.718V73H184.778ZM261.185 73.77C258.105 73.77 255.398 73.0233 253.065 71.53C250.731 70.0367 248.911 67.9133 247.605 65.16C246.298 62.4067 245.645 59.0933 245.645 55.22C245.645 51.3933 246.298 48.1033 247.605 45.35C248.911 42.5967 250.731 40.4967 253.065 39.05C255.398 37.5567 258.105 36.81 261.185 36.81C264.031 36.81 266.575 37.51 268.815 38.91C271.101 40.2633 272.595 42.1067 273.295 44.44H272.525L273.365 37.51H283.515C283.375 39.05 283.235 40.6133 283.095 42.2C283.001 43.74 282.955 45.2567 282.955 46.75V73H272.455L272.385 66.35H273.225C272.478 68.59 270.985 70.3867 268.745 71.74C266.505 73.0933 263.985 73.77 261.185 73.77ZM264.405 65.79C266.831 65.79 268.791 64.9267 270.285 63.2C271.778 61.4733 272.525 58.8133 272.525 55.22C272.525 51.6267 271.778 48.99 270.285 47.31C268.791 45.63 266.831 44.79 264.405 44.79C261.978 44.79 260.018 45.63 258.525 47.31C257.031 48.99 256.285 51.6267 256.285 55.22C256.285 58.8133 257.008 61.4733 258.455 63.2C259.948 64.9267 261.931 65.79 264.405 65.79ZM293.553 73V46.89C293.553 45.35 293.506 43.7867 293.413 42.2C293.366 40.6133 293.25 39.05 293.063 37.51H303.213L304.403 47.87H302.793C303.26 45.35 304.006 43.2733 305.033 41.64C306.106 40.0067 307.413 38.7933 308.953 38C310.54 37.2067 312.336 36.81 314.343 36.81C315.23 36.81 315.93 36.8567 316.443 36.95C316.956 36.9967 317.47 37.1133 317.983 37.3L317.913 46.61C316.933 46.19 316.093 45.9333 315.393 45.84C314.74 45.7 313.9 45.63 312.873 45.63C310.913 45.63 309.28 46.0033 307.973 46.75C306.713 47.4967 305.756 48.5933 305.103 50.04C304.496 51.4867 304.193 53.2367 304.193 55.29V73H293.553ZM324.402 73V21.48H334.972V52.28H335.112L348.272 37.51H360.872L343.862 56.41V52.56L361.782 73H348.832L335.112 57.6H334.972V73H324.402ZM383.901 73.77C377.741 73.77 372.934 72.1133 369.481 68.8C366.028 65.4867 364.301 60.9833 364.301 55.29C364.301 51.6033 365.024 48.3833 366.471 45.63C367.964 42.8767 370.018 40.73 372.631 39.19C375.291 37.6033 378.394 36.81 381.941 36.81C385.441 36.81 388.358 37.5567 390.691 39.05C393.071 40.5433 394.844 42.6433 396.011 45.35C397.224 48.01 397.831 51.1133 397.831 54.66V57.11H372.981V51.86H390.131L388.941 52.84C388.941 49.9 388.334 47.6833 387.121 46.19C385.954 44.65 384.251 43.88 382.011 43.88C379.538 43.88 377.624 44.79 376.271 46.61C374.964 48.43 374.311 51.0433 374.311 54.45V55.57C374.311 59.0233 375.151 61.59 376.831 63.27C378.558 64.95 381.031 65.79 384.251 65.79C386.164 65.79 387.961 65.5567 389.641 65.09C391.368 64.5767 393.001 63.7833 394.541 62.71L397.481 69.71C395.708 71.0167 393.654 72.02 391.321 72.72C389.034 73.42 386.561 73.77 383.901 73.77ZM422.922 73.77C418.302 73.77 414.825 72.6267 412.492 70.34C410.159 68.0067 408.992 64.53 408.992 59.91V45.42H402.272V37.51H408.992V28.83L419.562 26.24V37.51H428.662V45.42H419.562V59.35C419.562 61.59 420.029 63.13 420.962 63.97C421.895 64.81 423.085 65.23 424.532 65.23C425.419 65.23 426.142 65.1833 426.702 65.09C427.309 64.95 427.939 64.7633 428.592 64.53V72.72C427.705 73.0933 426.772 73.35 425.792 73.49C424.812 73.6767 423.855 73.77 422.922 73.77ZM436.086 73V37.51H446.656V73H436.086ZM435.666 31.7V21.83H447.006V31.7H435.666ZM457.295 73V46.75C457.295 45.2567 457.248 43.74 457.155 42.2C457.062 40.6133 456.922 39.05 456.735 37.51H466.885L467.655 44.09H466.815C467.982 41.7567 469.638 39.96 471.785 38.7C473.932 37.44 476.428 36.81 479.275 36.81C483.428 36.81 486.532 38.0233 488.585 40.45C490.685 42.83 491.735 46.54 491.735 51.58V73H481.165V52.07C481.165 49.5033 480.698 47.6833 479.765 46.61C478.832 45.5367 477.432 45 475.565 45C473.232 45 471.365 45.7467 469.965 47.24C468.565 48.6867 467.865 50.6467 467.865 53.12V73H457.295ZM519.095 88.68C515.688 88.68 512.655 88.33 509.995 87.63C507.335 86.9767 504.955 85.9733 502.855 84.62L504.885 77.06C506.191 77.9 507.568 78.5767 509.015 79.09C510.508 79.65 512.025 80.0467 513.565 80.28C515.151 80.56 516.715 80.7 518.255 80.7C521.381 80.7 523.715 79.9533 525.255 78.46C526.795 76.9667 527.565 74.8433 527.565 72.09V64.74H528.265C527.518 66.98 526.025 68.7767 523.785 70.13C521.545 71.4833 519.025 72.16 516.225 72.16C513.051 72.16 510.275 71.4367 507.895 69.99C505.561 68.5433 503.741 66.49 502.435 63.83C501.128 61.17 500.475 58.0433 500.475 54.45C500.475 50.8567 501.128 47.73 502.435 45.07C503.741 42.41 505.561 40.38 507.895 38.98C510.275 37.5333 513.051 36.81 516.225 36.81C519.071 36.81 521.568 37.4867 523.715 38.84C525.908 40.1467 527.378 41.8967 528.125 44.09L527.565 43.81L528.265 37.51H538.485C538.298 39.05 538.158 40.6133 538.065 42.2C537.971 43.74 537.925 45.2567 537.925 46.75V70.9C537.925 76.64 536.315 81.0267 533.095 84.06C529.875 87.14 525.208 88.68 519.095 88.68ZM519.375 64.18C521.848 64.18 523.808 63.34 525.255 61.66C526.701 59.98 527.425 57.5767 527.425 54.45C527.425 51.3233 526.701 48.9433 525.255 47.31C523.808 45.63 521.848 44.79 519.375 44.79C516.808 44.79 514.778 45.63 513.285 47.31C511.838 48.9433 511.115 51.3233 511.115 54.45C511.115 57.5767 511.838 59.98 513.285 61.66C514.778 63.34 516.808 64.18 519.375 64.18Z" fill="#FD695A"/>
<mask id="path-2-inside-1_2_122" fill="white">
<rect x="170" y="8" width="380" height="91" rx="1"/>
</mask>
<rect x="170" y="8" width="380" height="91" rx="1" stroke="#41BA77" stroke-width="7" mask="url(#path-2-inside-1_2_122)"/>
<path d="M163 6C163 3.23858 165.239 1 168 1C170.761 1 173 3.23858 173 6V11H168C165.239 11 163 8.76142 163 6Z" fill="#41BA77"/>
<path d="M163 101C163 103.761 165.239 106 168 106C170.761 106 173 103.761 173 101V96H168C165.239 96 163 98.2386 163 101Z" fill="#41BA77"/>
<path d="M557 101C557 103.761 554.761 106 552 106C549.239 106 547 103.761 547 101V96H552C554.761 96 557 98.2386 557 101Z" fill="#41BA77"/>
<path d="M557 7C557 4.23858 554.761 2 552 2C549.239 2 547 4.23858 547 7V12H552C554.761 12 557 9.76142 557 7Z" fill="#41BA77"/>
<g clip-path="url(#clip0_2_122)">
<path fill-rule="evenodd" clip-rule="evenodd" d="M555.86 113.488C555.479 113.235 554.924 112.643 554.064 111.986C553.578 111.614 552.464 110.978 552.07 110.6C551.726 110.263 551.69 110.074 551.631 109.722C551.527 109.096 551.988 108.432 552.662 108.282C553.17 108.168 553.695 108.358 554.172 108.544C554.459 108.656 554.856 108.925 555.09 109.074C555.306 109.21 555.369 109.275 555.606 109.441C555.92 109.662 556.035 109.785 555.847 109.49C555.626 109.041 555.254 108.271 554.863 107.611C554.565 107.11 554.508 107.035 554.258 106.658C553.991 106.257 553.828 105.968 553.561 105.538C553.374 105.233 553.01 104.603 552.847 104.235C552.624 103.733 552.32 102.894 552.527 102.395C552.689 102.005 553.259 101.718 553.692 101.785C554.259 101.873 554.766 102.491 554.984 102.732C555.377 103.166 555.708 103.707 556.081 104.437C556.556 105.367 557.286 106.635 557.388 106.918C557.297 106.559 556.969 105.849 556.921 105.493C556.877 105.169 557.018 104.731 557.308 104.531C557.554 104.361 557.863 104.228 558.162 104.195C558.48 104.159 558.863 104.27 559.045 104.433C559.582 104.914 559.983 106.125 559.976 106.055C559.942 105.671 559.664 104.865 559.757 104.461C559.818 104.195 560.092 103.884 560.262 103.793C560.526 103.653 560.864 103.526 561.176 103.488C561.428 103.457 561.84 103.634 561.971 103.741C562.284 104.001 562.703 104.888 562.844 105.201C562.902 105.33 562.793 104.805 562.895 104.41C563.083 103.677 564.412 103.115 564.897 104.431C565.123 105.045 565.109 105.018 565.245 105.437C565.405 105.929 565.49 106.228 565.579 106.592C565.673 106.982 565.871 107.869 565.888 108.324C565.899 108.637 565.837 109.369 565.695 109.842C565.695 109.842 565.061 111.362 565.123 111.934C565.185 112.505 565.223 112.497 565.325 112.883C565.426 113.269 565.725 113.723 565.725 113.723C565.725 113.723 564.994 114.07 564.562 114.138C564.171 114.198 563.47 113.608 563.277 113.421C563.013 113.162 562.683 113.335 562.622 113.61C562.526 114.043 562.278 114.846 561.966 114.993C561.357 115.279 560.023 115.658 558.987 115.983C558.987 115.983 558.851 114.964 558.352 114.761C557.982 114.609 557.32 114.272 556.936 114.107L555.86 113.488Z" fill="white"/>
<path fill-rule="evenodd" clip-rule="evenodd" d="M555.86 113.488C555.479 113.235 554.924 112.643 554.064 111.986C553.578 111.614 552.464 110.978 552.07 110.6C551.726 110.263 551.69 110.074 551.631 109.722C551.527 109.096 551.988 108.432 552.662 108.282C553.17 108.168 553.695 108.358 554.172 108.544C554.459 108.656 554.856 108.925 555.09 109.074C555.306 109.21 555.369 109.275 555.606 109.441C555.92 109.662 556.035 109.785 555.847 109.49C555.626 109.041 555.254 108.271 554.863 107.611C554.565 107.11 554.508 107.035 554.258 106.658C553.991 106.257 553.828 105.968 553.561 105.538C553.374 105.233 553.01 104.603 552.847 104.235C552.624 103.733 552.32 102.894 552.527 102.395C552.689 102.005 553.259 101.718 553.692 101.785C554.259 101.873 554.766 102.491 554.984 102.732C555.377 103.166 555.708 103.707 556.081 104.437C556.556 105.367 557.286 106.635 557.388 106.918C557.297 106.559 556.969 105.849 556.921 105.493C556.877 105.169 557.018 104.731 557.308 104.531C557.554 104.361 557.863 104.228 558.162 104.195C558.48 104.159 558.863 104.27 559.045 104.433C559.582 104.914 559.983 106.125 559.976 106.055C559.942 105.671 559.664 104.865 559.757 104.461C559.818 104.195 560.092 103.884 560.262 103.793C560.526 103.653 560.864 103.526 561.176 103.488C561.428 103.457 561.84 103.634 561.971 103.741C562.284 104.001 562.703 104.888 562.844 105.201C562.902 105.33 562.793 104.805 562.895 104.41C563.083 103.677 564.412 103.115 564.897 104.431C565.123 105.045 565.109 105.018 565.245 105.437C565.405 105.929 565.49 106.228 565.579 106.592C565.673 106.982 565.871 107.869 565.888 108.324C565.899 108.637 565.837 109.369 565.695 109.842C565.695 109.842 565.061 111.362 565.123 111.934C565.185 112.505 565.223 112.497 565.325 112.883C565.426 113.269 565.725 113.723 565.725 113.723C565.725 113.723 564.994 114.07 564.562 114.138C564.171 114.198 563.47 113.608 563.277 113.421C563.013 113.162 562.683 113.335 562.622 113.61C562.526 114.043 562.278 114.846 561.966 114.993C561.357 115.279 560.023 115.658 558.987 115.983C558.987 115.983 558.851 114.964 558.352 114.761C557.982 114.609 557.32 114.272 556.936 114.107L555.86 113.488Z" stroke="#4C4C4F" stroke-width="0.75" stroke-linecap="round" stroke-linejoin="round"/>
<path d="M563.801 111.279L562.731 107.99" stroke="#4C4C4F" stroke-width="0.75" stroke-linecap="round"/>
<path d="M561.888 111.914L560.799 108.616" stroke="#4C4C4F" stroke-width="0.75" stroke-linecap="round"/>
<path d="M558.925 109.258L560.005 112.51" stroke="#4C4C4F" stroke-width="0.75" stroke-linecap="round"/>
</g>
<defs>
<clipPath id="clip0_2_122">
<rect width="16" height="17" fill="white" transform="translate(551 100)"/>
</clipPath>
</defs>
</svg>
