<svg width="72" height="73" viewBox="0 0 72 73" fill="none" xmlns="http://www.w3.org/2000/svg">
<circle cx="35.9723" cy="36.5115" r="35.5193" fill="#BC5C56" fill-opacity="0.06"/>
<path d="M55.9413 36.018C55.9404 35.6123 55.7297 35.2359 55.3843 35.0229L51.3192 32.517L55.3886 29.9841C55.7318 29.7705 55.9406 29.3951 55.9413 28.991C55.9419 28.5868 55.7342 28.2108 55.3916 27.9962L36.5635 16.1993C36.183 15.9609 35.6996 15.9609 35.3191 16.1993L16.491 27.9962C16.1485 28.2108 15.9408 28.5868 15.9413 28.991C15.942 29.3952 16.1508 29.7706 16.494 29.9841L20.5355 32.4996L16.4922 35.0268C16.1492 35.2412 15.941 35.6172 15.9414 36.0217C15.9418 36.4261 16.1507 36.8018 16.4941 37.0155L20.5356 39.531L16.4922 42.0581C16.1498 42.2721 15.9417 42.6474 15.9414 43.0512C15.9412 43.455 16.1489 43.8305 16.4911 44.0449L35.3192 55.8417C35.5095 55.9609 35.7254 56.0205 35.9413 56.0205C36.1573 56.0205 36.3733 55.9609 36.5635 55.8417L55.3916 44.0449C55.7349 43.8298 55.9428 43.4526 55.9413 43.0475C55.9398 42.6424 55.7292 42.2668 55.3843 42.0542L51.3192 39.5483L55.3886 37.0154C55.7331 36.8011 55.9421 36.4237 55.9413 36.018ZM19.3257 28.9861L35.9413 18.5754L52.557 28.9861C52.3973 29.0855 36.4175 39.0314 35.9413 39.3278L19.3257 28.9861ZM52.5493 43.0599L35.9413 53.4658L19.3224 43.0531L22.7512 40.91L35.3221 48.7342C35.5117 48.8522 35.7265 48.9112 35.9413 48.9112C36.1562 48.9112 36.371 48.8522 36.5606 48.7342L49.0968 40.9316L52.5493 43.0599ZM35.9413 46.359L19.3277 36.0186L22.7512 33.8788L35.3221 41.703C35.5117 41.821 35.7265 41.8799 35.9413 41.8799C36.1562 41.8799 36.371 41.821 36.5606 41.703L49.0968 33.9004L52.544 36.0254C52.4488 36.0846 36.3812 46.0852 35.9413 46.359Z" fill="#FD695A" stroke="#FD695A" stroke-width="0.5"/>
</svg>
