<svg width="189" height="40" viewBox="0 0 189 40" fill="none" xmlns="http://www.w3.org/2000/svg">
<path d="M46.264 31C46.0507 31 45.8693 30.9253 45.72 30.776C45.5707 30.6267 45.496 30.4453 45.496 30.232V9.4C45.496 9.16533 45.5707 8.97333 45.72 8.824C45.8693 8.67467 46.0507 8.6 46.264 8.6H54.84C56.504 8.6 57.9547 8.86667 59.192 9.4C60.4293 9.912 61.3893 10.7013 62.072 11.768C62.7547 12.8133 63.096 14.1253 63.096 15.704C63.096 17.304 62.7547 18.6267 62.072 19.672C61.3893 20.696 60.4293 21.464 59.192 21.976C57.9547 22.488 56.504 22.744 54.84 22.744H50.072V30.232C50.072 30.4453 49.9973 30.6267 49.848 30.776C49.72 30.9253 49.5387 31 49.304 31H46.264ZM50.008 19.192H54.68C55.9173 19.192 56.8667 18.904 57.528 18.328C58.1893 17.7307 58.52 16.856 58.52 15.704C58.52 14.6373 58.2107 13.784 57.592 13.144C56.9733 12.4827 56.0027 12.152 54.68 12.152H50.008V19.192ZM67.4738 31C67.2604 31 67.0791 30.9253 66.9298 30.776C66.7804 30.6267 66.7057 30.4453 66.7057 30.232V15.16C66.7057 14.9253 66.7804 14.7333 66.9298 14.584C67.0791 14.4347 67.2604 14.36 67.4738 14.36H70.0658C70.2791 14.36 70.4604 14.4347 70.6098 14.584C70.7804 14.7333 70.8658 14.9253 70.8658 15.16V16.472C71.3564 15.7893 71.9858 15.2667 72.7538 14.904C73.5431 14.5413 74.4498 14.36 75.4738 14.36H76.7858C77.0204 14.36 77.2018 14.4347 77.3298 14.584C77.4791 14.7333 77.5538 14.9147 77.5538 15.128V17.432C77.5538 17.6453 77.4791 17.8267 77.3298 17.976C77.2018 18.1253 77.0204 18.2 76.7858 18.2H74.2898C73.2658 18.2 72.4658 18.488 71.8898 19.064C71.3351 19.64 71.0578 20.4293 71.0578 21.432V30.232C71.0578 30.4453 70.9831 30.6267 70.8338 30.776C70.6844 30.9253 70.4924 31 70.2578 31H67.4738ZM87.6908 31.32C85.9841 31.32 84.5441 31.0213 83.3708 30.424C82.2188 29.8267 81.3334 28.984 80.7148 27.896C80.1174 26.808 79.7761 25.5387 79.6908 24.088C79.6694 23.704 79.6588 23.2347 79.6588 22.68C79.6588 22.1253 79.6694 21.656 79.6908 21.272C79.7761 19.8 80.1281 18.5307 80.7468 17.464C81.3868 16.376 82.2828 15.5333 83.4348 14.936C84.6081 14.3387 86.0268 14.04 87.6908 14.04C89.3548 14.04 90.7628 14.3387 91.9148 14.936C93.0881 15.5333 93.9841 16.376 94.6028 17.464C95.2428 18.5307 95.6054 19.8 95.6908 21.272C95.7121 21.656 95.7228 22.1253 95.7228 22.68C95.7228 23.2347 95.7121 23.704 95.6908 24.088C95.6054 25.5387 95.2534 26.808 94.6348 27.896C94.0374 28.984 93.1521 29.8267 91.9788 30.424C90.8268 31.0213 89.3974 31.32 87.6908 31.32ZM87.6908 28.152C88.8214 28.152 89.6961 27.8 90.3148 27.096C90.9334 26.3707 91.2748 25.3147 91.3388 23.928C91.3601 23.608 91.3708 23.192 91.3708 22.68C91.3708 22.168 91.3601 21.752 91.3388 21.432C91.2748 20.0667 90.9334 19.0213 90.3148 18.296C89.6961 17.5707 88.8214 17.208 87.6908 17.208C86.5601 17.208 85.6854 17.5707 85.0668 18.296C84.4481 19.0213 84.1068 20.0667 84.0428 21.432C84.0214 21.752 84.0108 22.168 84.0108 22.68C84.0108 23.192 84.0214 23.608 84.0428 23.928C84.1068 25.3147 84.4481 26.3707 85.0668 27.096C85.6854 27.8 86.5601 28.152 87.6908 28.152ZM98.5643 31C98.3723 31 98.2016 30.936 98.0523 30.808C97.9243 30.6587 97.8603 30.488 97.8603 30.296C97.8603 30.232 97.8709 30.1573 97.8923 30.072C97.9349 29.9867 97.9989 29.88 98.0843 29.752L103.524 22.456L98.4683 15.608C98.4043 15.5013 98.3509 15.4053 98.3083 15.32C98.2869 15.2347 98.2763 15.1493 98.2763 15.064C98.2763 14.872 98.3403 14.712 98.4683 14.584C98.6176 14.4347 98.7883 14.36 98.9803 14.36H101.764C102.02 14.36 102.212 14.424 102.34 14.552C102.468 14.68 102.564 14.7973 102.628 14.904L106.244 19.704L109.86 14.904C109.946 14.7973 110.042 14.68 110.148 14.552C110.276 14.424 110.468 14.36 110.724 14.36H113.38C113.572 14.36 113.732 14.4347 113.86 14.584C114.01 14.712 114.084 14.8613 114.084 15.032C114.084 15.1387 114.063 15.2347 114.02 15.32C113.999 15.4053 113.956 15.5013 113.892 15.608L108.772 22.52L114.244 29.752C114.33 29.88 114.383 29.9867 114.404 30.072C114.447 30.1573 114.468 30.232 114.468 30.296C114.468 30.488 114.394 30.6587 114.244 30.808C114.116 30.936 113.956 31 113.764 31H110.852C110.618 31 110.436 30.9467 110.308 30.84C110.18 30.712 110.074 30.5947 109.988 30.488L106.148 25.4L102.244 30.488C102.159 30.5947 102.052 30.712 101.924 30.84C101.818 30.9467 101.636 31 101.38 31H98.5643ZM120.839 37.08C120.668 37.08 120.519 37.016 120.391 36.888C120.263 36.76 120.199 36.6107 120.199 36.44C120.199 36.3547 120.199 36.2693 120.199 36.184C120.22 36.12 120.263 36.0347 120.327 35.928L122.823 30.008L116.679 15.512C116.593 15.2987 116.551 15.1493 116.551 15.064C116.572 14.872 116.647 14.712 116.775 14.584C116.903 14.4347 117.063 14.36 117.255 14.36H119.847C120.103 14.36 120.295 14.424 120.423 14.552C120.551 14.68 120.647 14.8187 120.711 14.968L124.967 25.432L129.351 14.968C129.415 14.7973 129.511 14.6587 129.639 14.552C129.767 14.424 129.959 14.36 130.215 14.36H132.775C132.945 14.36 133.095 14.424 133.223 14.552C133.372 14.68 133.447 14.8293 133.447 15C133.447 15.128 133.404 15.2987 133.319 15.512L124.263 36.472C124.177 36.6427 124.071 36.7813 123.943 36.888C123.815 37.016 123.623 37.08 123.367 37.08H120.839ZM137.506 31C137.292 31 137.111 30.9253 136.962 30.776C136.812 30.6267 136.738 30.4453 136.738 30.232V9.048C136.738 8.83467 136.812 8.65333 136.962 8.504C137.111 8.35467 137.292 8.28 137.506 8.28H140.162C140.375 8.28 140.556 8.35467 140.706 8.504C140.855 8.65333 140.93 8.83467 140.93 9.048V30.232C140.93 30.4453 140.855 30.6267 140.706 30.776C140.556 30.9253 140.375 31 140.162 31H137.506ZM150.507 31.32C149.397 31.32 148.395 31.1067 147.499 30.68C146.603 30.232 145.888 29.6453 145.355 28.92C144.843 28.1733 144.587 27.3413 144.587 26.424C144.587 24.9307 145.184 23.7467 146.379 22.872C147.595 21.976 149.195 21.3787 151.179 21.08L155.563 20.44V19.768C155.563 18.872 155.339 18.1787 154.891 17.688C154.443 17.1973 153.675 16.952 152.587 16.952C151.819 16.952 151.189 17.112 150.699 17.432C150.229 17.7307 149.877 18.136 149.643 18.648C149.472 18.9253 149.227 19.064 148.907 19.064H146.379C146.144 19.064 145.963 19 145.835 18.872C145.728 18.744 145.674 18.5733 145.674 18.36C145.696 18.0187 145.835 17.6027 146.091 17.112C146.347 16.6213 146.752 16.152 147.307 15.704C147.861 15.2347 148.576 14.84 149.451 14.52C150.325 14.2 151.381 14.04 152.619 14.04C153.963 14.04 155.093 14.2107 156.011 14.552C156.949 14.872 157.696 15.3093 158.251 15.864C158.805 16.4187 159.211 17.0693 159.467 17.816C159.723 18.5627 159.851 19.352 159.851 20.184V30.232C159.851 30.4453 159.776 30.6267 159.627 30.776C159.477 30.9253 159.296 31 159.083 31H156.491C156.256 31 156.064 30.9253 155.915 30.776C155.787 30.6267 155.723 30.4453 155.723 30.232V28.984C155.445 29.3893 155.072 29.7733 154.603 30.136C154.133 30.4773 153.557 30.7653 152.875 31C152.213 31.2133 151.424 31.32 150.507 31.32ZM151.595 28.28C152.341 28.28 153.013 28.12 153.611 27.8C154.229 27.48 154.709 26.9893 155.051 26.328C155.413 25.6453 155.595 24.792 155.595 23.768V23.096L152.395 23.608C151.136 23.8 150.197 24.1093 149.579 24.536C148.96 24.9627 148.651 25.4853 148.651 26.104C148.651 26.5733 148.789 26.9787 149.067 27.32C149.365 27.64 149.739 27.8853 150.187 28.056C150.635 28.2053 151.104 28.28 151.595 28.28ZM173.672 31.32C172.434 31.32 171.4 31.1067 170.568 30.68C169.757 30.2533 169.085 29.7093 168.552 29.048V30.232C168.552 30.4453 168.477 30.6267 168.328 30.776C168.2 30.9253 168.018 31 167.784 31H165.256C165.042 31 164.861 30.9253 164.712 30.776C164.562 30.6267 164.488 30.4453 164.488 30.232V9.048C164.488 8.83467 164.562 8.65333 164.712 8.504C164.861 8.35467 165.042 8.28 165.256 8.28H167.976C168.21 8.28 168.392 8.35467 168.52 8.504C168.669 8.65333 168.744 8.83467 168.744 9.048V16.152C169.277 15.5333 169.938 15.032 170.728 14.648C171.538 14.2427 172.52 14.04 173.672 14.04C174.802 14.04 175.784 14.232 176.616 14.616C177.448 15 178.141 15.544 178.696 16.248C179.272 16.9307 179.709 17.7307 180.008 18.648C180.306 19.5653 180.466 20.5573 180.488 21.624C180.509 22.008 180.52 22.36 180.52 22.68C180.52 22.9787 180.509 23.32 180.488 23.704C180.445 24.8133 180.274 25.8373 179.976 26.776C179.677 27.6933 179.25 28.4933 178.696 29.176C178.141 29.8587 177.448 30.392 176.616 30.776C175.784 31.1387 174.802 31.32 173.672 31.32ZM172.488 27.896C173.405 27.896 174.12 27.704 174.632 27.32C175.144 26.9147 175.506 26.392 175.72 25.752C175.954 25.112 176.093 24.408 176.136 23.64C176.178 23 176.178 22.36 176.136 21.72C176.093 20.952 175.954 20.248 175.72 19.608C175.506 18.968 175.144 18.456 174.632 18.072C174.12 17.6667 173.405 17.464 172.488 17.464C171.634 17.464 170.941 17.656 170.408 18.04C169.874 18.424 169.469 18.9147 169.192 19.512C168.914 20.088 168.765 20.696 168.744 21.336C168.722 21.72 168.712 22.136 168.712 22.584C168.712 23.0107 168.722 23.416 168.744 23.8C168.786 24.4613 168.925 25.112 169.16 25.752C169.416 26.3707 169.81 26.8827 170.344 27.288C170.898 27.6933 171.613 27.896 172.488 27.896Z" fill="#3D3D3F"/>
<path d="M31.5665 3.68945H27.2181C25.8764 3.68945 24.7887 4.74845 24.7887 6.05488V10.2886C24.7887 11.595 25.8764 12.6541 27.2181 12.6541H31.5665C32.9083 12.6541 33.996 11.595 33.996 10.2886V6.05488C33.996 4.74845 32.9083 3.68945 31.5665 3.68945Z" fill="#FD695A"/>
<path d="M14.5381 12.9064H18.3565C19.9366 12.9939 21.4396 13.6 22.6204 14.6259L22.7636 14.7809C23.8228 15.9272 24.4462 17.3926 24.5296 18.9324V22.6347C24.5296 23.2797 24.7928 23.8983 25.2612 24.3544C25.7297 24.8105 26.365 25.0667 27.0275 25.0667H31.4982C32.1607 25.0667 32.796 24.8105 33.2645 24.3544C33.7329 23.8983 33.9961 23.2797 33.9961 22.6347V18.2818C33.9961 17.6368 33.7329 17.0182 33.2645 16.5621C32.796 16.106 32.1607 15.8498 31.4982 15.8498H27.6957C26.1142 15.7685 24.6092 15.1615 23.4318 14.1303L23.2727 13.9908C22.2169 12.8425 21.594 11.3783 21.5067 9.83929V6.1215C21.5067 5.47652 21.2436 4.8579 20.7752 4.4018C20.3066 3.94571 19.6713 3.68945 19.0088 3.68945H14.5381C13.8756 3.68945 13.2403 3.94571 12.7719 4.4018C12.3035 4.8579 12.0403 5.47652 12.0403 6.1215V10.4745C12.0403 11.1194 12.3035 11.738 12.7719 12.1941C13.2403 12.6502 13.8756 12.9064 14.5381 12.9064Z" fill="#FD695A"/>
<path d="M32.2142 28.1472H28.4317C26.8572 28.0477 25.3653 27.4117 24.2079 26.3465L23.7824 25.9238C22.7332 24.765 22.1156 23.2837 22.033 21.7273V17.9693C22.0288 17.3186 21.7668 16.6957 21.3037 16.2355C20.8405 15.7753 20.2135 15.515 19.5586 15.511H15.7761C14.2145 15.4456 12.7231 14.8485 11.5523 13.8199L11.1268 13.3971C10.0775 12.2384 9.46007 10.7571 9.37735 9.20065V5.45839C9.37735 4.80638 9.11664 4.18106 8.65266 3.72C8.18862 3.25901 7.55926 3 6.90299 3H2.47429C1.81809 3 1.18867 3.25901 0.724694 3.72C0.260647 4.18106 -6.10352e-05 4.80638 -6.10352e-05 5.45839V9.85832C-6.10352e-05 10.5103 0.260647 11.1356 0.724694 11.5966C1.18867 12.0577 1.81809 12.3167 2.47429 12.3167H6.24106C7.83158 12.389 9.34725 13.009 10.5279 14.0704L10.9534 14.4932C11.9994 15.654 12.6163 17.134 12.7028 18.6895V22.4476C12.7069 23.0983 12.969 23.7212 13.4321 24.1813C13.8952 24.6415 14.5222 24.9018 15.1772 24.9059H18.9597C20.509 25.0023 21.9803 25.6145 23.1362 26.644L23.5617 27.0668C24.6077 28.2275 25.2246 29.7076 25.3111 31.2632V35.0212C25.3152 35.6719 25.5773 36.2948 26.0404 36.7549C26.5035 37.2151 27.1306 37.4754 27.7855 37.4795H32.2299C32.8849 37.4754 33.5119 37.2151 33.975 36.7549C34.4382 36.2948 34.7002 35.6719 34.7043 35.0212V30.6055C34.7001 29.9521 34.436 29.3268 33.9694 28.8662C33.5029 28.4057 32.8719 28.1471 32.2142 28.1472Z" fill="#FD695A"/>
<path d="M7.29911 27.8252H2.61629C1.17132 27.8252 -6.10352e-05 28.8843 -6.10352e-05 30.1907V34.4244C-6.10352e-05 35.7309 1.17132 36.7899 2.61629 36.7899H7.29911C8.74408 36.7899 9.91546 35.7309 9.91546 34.4244V30.1907C9.91546 28.8843 8.74408 27.8252 7.29911 27.8252Z" fill="#FD695A"/>
<path d="M19.4579 27.5731H15.6554C14.0739 27.4918 12.5689 26.8849 11.3915 25.8536L11.2324 25.7142C10.1698 24.5577 9.54655 23.0815 9.46638 21.5317V17.8139C9.45852 17.1875 9.2027 16.5882 8.75218 16.1408C8.30166 15.6936 7.69121 15.4328 7.04805 15.4128H2.49781C1.83531 15.4128 1.2 15.6691 0.731562 16.1252C0.263124 16.5813 -6.10352e-05 17.1998 -6.10352e-05 17.8449V22.1978C-6.10352e-05 22.8428 0.263124 23.4614 0.731562 23.9175C1.2 24.3736 1.83531 24.6298 2.49781 24.6298H6.31621C7.89625 24.7173 9.39931 25.3233 10.5801 26.3493L10.7233 26.5042C11.7825 27.6506 12.4058 29.1159 12.4893 30.6557V34.358C12.4893 34.6787 12.5544 34.9962 12.6809 35.2922C12.8075 35.5884 12.9929 35.8572 13.2266 36.0832C13.4601 36.3092 13.7374 36.4881 14.0423 36.6094C14.3472 36.7307 14.6737 36.7921 15.0031 36.79H19.4579C20.1204 36.79 20.7557 36.5338 21.2242 36.0778C21.6926 35.6217 21.9558 35.003 21.9558 34.358V30.0051C21.9558 29.3601 21.6926 28.7415 21.2242 28.2854C20.7557 27.8293 20.1204 27.5731 19.4579 27.5731Z" fill="#FD695A"/>
</svg>
