<?xml version="1.0" encoding="utf-8"?>
<!-- Generator: Adobe Illustrator 26.4.1, SVG Export Plug-In . SVG Version: 6.00 Build 0)  -->
<svg version="1.1" id="Слой_1" xmlns="http://www.w3.org/2000/svg" xmlns:xlink="http://www.w3.org/1999/xlink" x="0px" y="0px"
	 viewBox="0 0 49.6 47.8" style="enable-background:new 0 0 49.6 47.8;" xml:space="preserve">
<style type="text/css">
	.st0{fill:url(#SVGID_1_);}
	.st1{fill:#FD695A;}
</style>
<g>
	<g>
		
			<linearGradient id="SVGID_1_" gradientUnits="userSpaceOnUse" x1="-4.1805" y1="81.2048" x2="53.1356" y2="63.9382" gradientTransform="matrix(1 0 0 -1 0 96.5511)">
			<stop  offset="0" style="stop-color:#FFFFFF;stop-opacity:0.57"/>
			<stop  offset="0.9999" style="stop-color:#FFFFFF;stop-opacity:0.28"/>
			<stop  offset="1" style="stop-color:#FFFFFF;stop-opacity:0.69"/>
		</linearGradient>
		<path class="st0" d="M24.5,48c13.6,0,24.5-10.7,24.5-24c0-13.3-11-24-24.5-24S0,10.7,0,24C0,37.3,11,48,24.5,48z"/>
	</g>
	<path class="st1" d="M17,32.3V15.7c0-0.2,0-0.3,0.1-0.5c0.1-0.1,0.2-0.3,0.4-0.3c0.1-0.1,0.3-0.1,0.5-0.1s0.3,0.1,0.5,0.1l13.3,8.3
		c0.1,0.1,0.2,0.2,0.3,0.3s0.1,0.3,0.1,0.4c0,0.2,0,0.3-0.1,0.4c-0.1,0.1-0.2,0.2-0.3,0.3l-13.3,8.3c-0.1,0.1-0.3,0.1-0.5,0.1
		c-0.2,0-0.3,0-0.5-0.1c-0.1-0.1-0.3-0.2-0.4-0.3C17,32.7,17,32.5,17,32.3L17,32.3z"/>
	<path class="st1" d="M17.3,32.3V15.6c0,0,0,0,0-0.1c0,0.1,0,0,0,0c0,0,0-0.1,0-0.1c0,0.1,0,0,0,0c0,0,0-0.1,0.1-0.1s0,0,0,0
		c0,0.1,0,0,0,0c0,0,0.1-0.1,0.1-0.1c-0.1,0,0,0,0,0l0.1,0l0.1,0c0.1,0-0.1,0,0,0c0,0,0.1,0,0.1,0c0.1,0,0,0,0,0c0,0,0,0,0.1,0
		c0,0,0,0,0.1,0c0,0,0.1,0,0,0l0,0c0,0,0.1,0,0.1,0c0.1,0,0,0,0,0l0.1,0c0,0,0,0,0,0h0l0.1,0.1l0.5,0.3l2.1,1.3c1,0.6,2,1.2,3,1.9
		c1,0.7,2.1,1.3,3.1,2l2.7,1.7c0.5,0.3,1.1,0.7,1.6,1c0.1,0,0.1,0.1,0.2,0.1l0,0l0.1,0c-0.1,0,0,0,0,0c0,0,0,0,0.1,0.1
		c0,0,0,0.1,0,0c0,0,0,0,0,0c0,0,0,0,0,0.1c0,0,0,0.1,0,0c0,0,0,0.1,0,0.1c0,0,0,0,0,0.1c0-0.1,0,0,0,0s0,0.2,0,0.1c0,0,0,0.1,0,0.1
		c0,0,0,0,0,0.1c0-0.1,0,0,0,0c0,0,0,0,0,0.1c0,0-0.1,0.1,0,0c0,0-0.1,0.1-0.1,0.1c0,0-0.1,0,0,0c0,0,0,0-0.1,0c0,0,0,0,0,0
		l-1.2,0.8l-2.5,1.6c-1,0.6-2.1,1.3-3.1,1.9l-3,1.9c-0.8,0.5-1.6,1-2.4,1.5c-0.4,0.2-0.7,0.4-1.1,0.7c0,0-0.1,0-0.1,0.1
		c0.1,0,0,0,0,0l-0.1,0c0,0,0,0-0.1,0c0.1,0,0,0,0,0c0,0-0.1,0-0.1,0c-0.1,0,0,0,0,0c0,0-0.1,0-0.1,0c0,0-0.1,0-0.1,0
		c0,0-0.1,0-0.1,0c0,0,0,0-0.1,0c0,0,0.1,0.1,0,0c0,0-0.1-0.1-0.1-0.1c0,0.1,0,0,0,0c0,0,0,0,0-0.1c0,0,0-0.1,0,0
		C17.3,32.5,17.3,32.5,17.3,32.3C17.3,32.4,17.3,32.3,17.3,32.3C17.3,32.4,17.3,32.4,17.3,32.3c0-0.1,0-0.2-0.1-0.2
		C17.1,32,17,32,17,32c-0.1,0-0.2,0-0.3,0.1c-0.1,0.1-0.1,0.2-0.1,0.2c0,0.2,0.1,0.4,0.2,0.6c0.1,0.2,0.3,0.4,0.5,0.5
		c0.2,0.1,0.4,0.2,0.7,0.2c0.2,0,0.5-0.1,0.7-0.2c0.1-0.1,0.2-0.1,0.3-0.2l1.8-1.1l2.8-1.8c1.1-0.7,2.1-1.3,3.2-2l2.9-1.8
		c0.7-0.4,1.3-0.8,2-1.2l0.4-0.3c0.1-0.1,0.2-0.2,0.3-0.3c0.2-0.2,0.2-0.4,0.3-0.7c0-0.2,0-0.5-0.1-0.7c-0.1-0.3-0.4-0.5-0.6-0.6
		l-0.6-0.4L29,21.1l-3-1.9c-1.1-0.7-2.1-1.3-3.2-2l-2.7-1.7l-1.4-0.9c-0.2-0.1-0.3-0.2-0.5-0.2c-0.2,0-0.4,0-0.6,0
		c-0.3,0.1-0.5,0.2-0.7,0.5c-0.2,0.2-0.3,0.5-0.3,0.8v16.6c0,0.1,0,0.2,0.1,0.2c0.1,0.1,0.2,0.1,0.3,0.1c0.1,0,0.2,0,0.3-0.1
		C17.3,32.5,17.3,32.4,17.3,32.3L17.3,32.3z"/>
</g>
</svg>
