<svg width="404" height="116" viewBox="0 0 404 116" fill="none" xmlns="http://www.w3.org/2000/svg">
<mask id="path-1-inside-1_2_124" fill="white">
<rect x="6.99994" y="7" width="380" height="91" rx="1"/>
</mask>
<rect x="6.99994" y="7" width="380" height="91" rx="1" stroke="#41BA77" stroke-width="7" mask="url(#path-1-inside-1_2_124)"/>
<path d="M-6.10352e-05 5C-6.10352e-05 2.23858 2.23852 0 4.99994 0C7.76136 0 9.99994 2.23858 9.99994 5V10H4.99994C2.23852 10 -6.10352e-05 7.76142 -6.10352e-05 5Z" fill="#41BA77"/>
<path d="M-6.10352e-05 100C-6.10352e-05 102.761 2.23852 105 4.99994 105C7.76136 105 9.99994 102.761 9.99994 100V95H4.99994C2.23852 95 -6.10352e-05 97.2386 -6.10352e-05 100Z" fill="#41BA77"/>
<path d="M394 100C394 102.761 391.761 105 389 105C386.239 105 384 102.761 384 100V95H389C391.761 95 394 97.2386 394 100Z" fill="#41BA77"/>
<path d="M394 6C394 3.23858 391.761 1 389 1C386.239 1 384 3.23858 384 6V11H389C391.761 11 394 8.76142 394 6Z" fill="#41BA77"/>
<g clip-path="url(#clip0_2_124)">
<path fill-rule="evenodd" clip-rule="evenodd" d="M392.86 112.488C392.479 112.235 391.924 111.643 391.064 110.986C390.578 110.614 389.464 109.978 389.07 109.6C388.726 109.263 388.69 109.074 388.631 108.722C388.527 108.096 388.988 107.432 389.662 107.282C390.17 107.168 390.695 107.358 391.172 107.544C391.459 107.656 391.856 107.925 392.09 108.074C392.306 108.21 392.369 108.275 392.606 108.441C392.92 108.662 393.035 108.785 392.847 108.49C392.626 108.041 392.254 107.271 391.863 106.611C391.565 106.11 391.508 106.035 391.258 105.658C390.991 105.257 390.828 104.968 390.561 104.538C390.374 104.233 390.01 103.603 389.847 103.235C389.624 102.733 389.32 101.894 389.527 101.395C389.689 101.005 390.259 100.718 390.692 100.785C391.259 100.873 391.766 101.491 391.984 101.732C392.377 102.166 392.708 102.707 393.081 103.437C393.556 104.367 394.286 105.635 394.388 105.918C394.297 105.559 393.969 104.849 393.921 104.493C393.877 104.169 394.018 103.731 394.308 103.531C394.554 103.361 394.863 103.228 395.162 103.195C395.48 103.159 395.863 103.27 396.045 103.433C396.582 103.914 396.983 105.125 396.976 105.055C396.942 104.671 396.664 103.865 396.757 103.461C396.818 103.195 397.092 102.884 397.262 102.793C397.526 102.653 397.864 102.526 398.176 102.488C398.428 102.457 398.84 102.634 398.971 102.741C399.284 103.001 399.703 103.888 399.844 104.201C399.902 104.33 399.793 103.805 399.895 103.41C400.083 102.677 401.412 102.115 401.897 103.431C402.123 104.045 402.109 104.018 402.245 104.437C402.405 104.929 402.49 105.228 402.579 105.592C402.673 105.982 402.871 106.869 402.888 107.324C402.899 107.637 402.837 108.369 402.695 108.842C402.695 108.842 402.061 110.362 402.123 110.934C402.185 111.505 402.223 111.497 402.325 111.883C402.426 112.269 402.725 112.723 402.725 112.723C402.725 112.723 401.994 113.07 401.562 113.138C401.171 113.198 400.47 112.608 400.277 112.421C400.013 112.162 399.683 112.335 399.622 112.61C399.526 113.043 399.278 113.846 398.966 113.993C398.357 114.279 397.023 114.658 395.987 114.983C395.987 114.983 395.851 113.964 395.352 113.761C394.982 113.609 394.32 113.272 393.936 113.107L392.86 112.488Z" fill="white"/>
<path fill-rule="evenodd" clip-rule="evenodd" d="M392.86 112.488C392.479 112.235 391.924 111.643 391.064 110.986C390.578 110.614 389.464 109.978 389.07 109.6C388.726 109.263 388.69 109.074 388.631 108.722C388.527 108.096 388.988 107.432 389.662 107.282C390.17 107.168 390.695 107.358 391.172 107.544C391.459 107.656 391.856 107.925 392.09 108.074C392.306 108.21 392.369 108.275 392.606 108.441C392.92 108.662 393.035 108.785 392.847 108.49C392.626 108.041 392.254 107.271 391.863 106.611C391.565 106.11 391.508 106.035 391.258 105.658C390.991 105.257 390.828 104.968 390.561 104.538C390.374 104.233 390.01 103.603 389.847 103.235C389.624 102.733 389.32 101.894 389.527 101.395C389.689 101.005 390.259 100.718 390.692 100.785C391.259 100.873 391.766 101.491 391.984 101.732C392.377 102.166 392.708 102.707 393.081 103.437C393.556 104.367 394.286 105.635 394.388 105.918C394.297 105.559 393.969 104.849 393.921 104.493C393.877 104.169 394.018 103.731 394.308 103.531C394.554 103.361 394.863 103.228 395.162 103.195C395.48 103.159 395.863 103.27 396.045 103.433C396.582 103.914 396.983 105.125 396.976 105.055C396.942 104.671 396.664 103.865 396.757 103.461C396.818 103.195 397.092 102.884 397.262 102.793C397.526 102.653 397.864 102.526 398.176 102.488C398.428 102.457 398.84 102.634 398.971 102.741C399.284 103.001 399.703 103.888 399.844 104.201C399.902 104.33 399.793 103.805 399.895 103.41C400.083 102.677 401.412 102.115 401.897 103.431C402.123 104.045 402.109 104.018 402.245 104.437C402.405 104.929 402.49 105.228 402.579 105.592C402.673 105.982 402.871 106.869 402.888 107.324C402.899 107.637 402.837 108.369 402.695 108.842C402.695 108.842 402.061 110.362 402.123 110.934C402.185 111.505 402.223 111.497 402.325 111.883C402.426 112.269 402.725 112.723 402.725 112.723C402.725 112.723 401.994 113.07 401.562 113.138C401.171 113.198 400.47 112.608 400.277 112.421C400.013 112.162 399.683 112.335 399.622 112.61C399.526 113.043 399.278 113.846 398.966 113.993C398.357 114.279 397.023 114.658 395.987 114.983C395.987 114.983 395.851 113.964 395.352 113.761C394.982 113.609 394.32 113.272 393.936 113.107L392.86 112.488Z" stroke="#4C4C4F" stroke-width="0.75" stroke-linecap="round" stroke-linejoin="round"/>
<path d="M400.801 110.279L399.731 106.99" stroke="#4C4C4F" stroke-width="0.75" stroke-linecap="round"/>
<path d="M398.888 110.914L397.799 107.616" stroke="#4C4C4F" stroke-width="0.75" stroke-linecap="round"/>
<path d="M395.925 108.258L397.005 111.51" stroke="#4C4C4F" stroke-width="0.75" stroke-linecap="round"/>
</g>
<defs>
<clipPath id="clip0_2_124">
<rect width="16" height="17" fill="white" transform="translate(388 99)"/>
</clipPath>
</defs>
</svg>
